<?xml version="1.0" encoding="utf-8"?>
<!-- Generator: Adobe Illustrator 30.2.1, SVG Export Plug-In . SVG Version: 9.03 Build 0)  -->
<svg version="1.0" id="レイヤー_1" xmlns="http://www.w3.org/2000/svg" xmlns:xlink="http://www.w3.org/1999/xlink" x="0px"
	 y="0px" viewBox="0 0 614.39 165.64" style="enable-background:new 0 0 614.39 165.64;" xml:space="preserve">
<style type="text/css">
	.st0{fill:#EDEDED;}
</style>
<g id="CoLnfR.tif">
	<g>
		<path class="st0" d="M134.01,95.88c0.55,1.71,1.62,3.95,1.75,5.75c0.67,9.83,0.02,19.44-0.85,29.28
			c-0.75,8.55-3.48,21.61-14.21,21.62l-14.47,0l0-134.63c4.59-4.03,15.24-3.85,19.79-0.14c1.33,1.09,1.36,3.5,1.72,5.09l4.58,20.34
			c-0.09,9.05,0.04,22.87-3.05,31.05c-0.74,1.97-1.38,2.64-0.71,4.7L134.01,95.88z M125.83,53.84c0.16-3.77-0.83-6.51-2.14-9.69
			l-4.74-11.43c-0.47-1.14-2.71-0.95-4-0.65l-1.39,34.73l5.62,1.95c2.05,0.71,3.82-1.32,4.73-3.05
			C125.81,62.09,125.65,58.13,125.83,53.84z M127.35,126.7c1.3-5.49,2.37-11.12,1.61-16.59c-0.42-3.01-2.25-5.72-3.34-8.56
			l-5.81-15.11c-2.29-0.44-4.08-0.56-6.47,0.03l-0.51,46.95c4.11-0.11,10.38,1.12,12.23-2.12
			C125.83,129.96,126.92,128.49,127.35,126.7z"/>
		<path class="st0" d="M84.95,87.51c-0.22,13.99-0.33,37.97-4.03,50.81c-1.25,4.35-2.4,8.45-5.47,11.91
			c-1.43,1.52-3.61,2.77-5.83,2.78l-14.64,0.03l0.01-135.9c6.86-5.23,15.32-6.77,22.41-1.62c0.65,0.47,2.38,0.79,2.48,1.89
			l2.23,24.09l1.84,23.55C84.52,72.68,85.07,79.84,84.95,87.51z M77.82,97.49c0.11-7.25,0.9-14.3-0.03-21.47l-2.8-21.46
			c-0.98-7.5-1.79-14.69-2.98-22.11c-3-0.22-5.18-0.54-8.26-0.43l-0.96,39.04l-1.5,58.82l6.22,3.27c1.94,1.02,3.85,0.48,5.16-1.35
			C77,125.75,77.7,105.52,77.82,97.49z"/>
		<path class="st0" d="M388.79,149.57c-4.44-0.03-8.96,0.33-13.43-0.14c-2.61-0.27-4.14-2.7-5.57-4.67
			c-3.19-6.16-4.81-12.48-5.91-19.42c-2.88-18.06-3.82-35.93-3.4-54.29c0.12-5.36,0.97-10.2,1.44-15.49l2.52-27.93l1.12-11.66
			c4.67,0.16,9.2-0.31,13.85,0.18c2.49,0.26,4.43,2.47,5.85,4.27c2.83,4.83,4.14,9.77,5.18,15.26c2.95,15.7,3.54,31.3,3.73,47.33
			c0.11,9.34-0.61,17.92-1.51,27.15l-2.62,26.75C389.63,141.14,389.77,145.05,388.79,149.57z M381.96,129.21
			c1.51-12.35,3.75-23.95,4.37-36.21c0.54-10.8-0.17-21.16-0.66-31.86c-0.33-7.12-1.76-13.8-4.7-20.24
			c-1.46-3.2-4.83-5.29-8.46-4.43l-3.36,25.61c-0.44,3.36-0.93,6.6-1.01,10.01c-0.26,12.42,0.19,24.55,1.19,36.91
			c0.5,6.14,2.01,12.03,4.87,17.25C375.75,129.04,379.12,130.01,381.96,129.21z"/>
		<path class="st0" d="M280.37,149.53l-11.77,0.17c-1.79,0.03-3.69-0.49-4.95-1.9c-4.96-5.53-7.71-17.39-8.67-24.92
			c-2.26-17.67-3.41-34.97-2.97-52.78l2.95-31.03l2.1-23.11c5.97,0.37,13.76-1.42,18.16,2.08c1.49,2.86,3.54,5.26,4.45,8.36
			c2.76,9.44,4.36,18.79,4.88,28.69c0.66,12.59,1.14,24.71,1.04,37.24c-0.04,5.11-0.66,9.93-1.16,15.17L280.37,149.53z
			 M275.92,111.2l2.11-16.49c0.65-5.06-0.02-10.02,0.02-15.18c0.07-9.37-0.66-18.29-2.02-27.53c-0.84-5.7-3.92-17.77-11.85-15.52
			c-1.09,2.21-0.59,4.36-0.88,6.56l-3.86,28.98c0.49,8.15-2.2,63.77,14.24,57.01L275.92,111.2z"/>
		<path class="st0" d="M454.29,143.07c0.68,2.93,0.93,5.74,1.79,8.48c-3.42,0.22-6.32,0.28-9.59-0.01l-4.12-23.6l-3.14-18.42
			l-2-11.59c-0.22-1.26-3.17-0.91-4.14-0.39l-1.11,54.17c-1.91-0.12-4.08,0.15-6.3-0.23l-0.01-132.26l21.87,0
			c1.08,4.79,2.53,9.2,3.26,14c0.88,5.79,3.29,11.11,3.85,16.94c0.69,7.13,0.21,14.18-0.18,21.35c-0.39,7.05-1.65,13.72-4.3,20.08
			c-1.21,2.9-3.33,4.66-6.51,5.74c1.61,5.17,2.36,9.96,3.51,14.93l3.63,15.74L454.29,143.07z M448.42,58.05l-7.3-22.37
			c-2.38-0.16-4.29-0.46-6.7-0.17l-1.04,40.47c3.24,1.4,5.99,3.22,9.31,3.54C449.01,80.14,448.24,62.08,448.42,58.05z"/>
		<path class="st0" d="M485.3,122.61l-7.7-4.21c-1.78-0.97-3.36-2.04-5.65-2.55l-3.54,35.85l-8.68-0.11l3.5-31.14l4.28-38.48
			l4-35.86l3.1-26.88l8.02,0l1.73,15.88l4.47,41.36l4.1,38.46l4.02,36.86l-8.69-0.22L485.3,122.61z M483.5,96.46l-3.06-34.36
			c-0.57-6.35-0.49-12.3-2.05-18.55c-1.41,9.51-1.76,19.05-2.7,28.83l-2.34,24.27C476.87,96.76,479.97,97.13,483.5,96.46z"/>
		<path class="st0" d="M310.03,61.55c-5.41,21.45-5.01,10.08-0.23,33.05l4.31,20.75l3.86,18.06l3.3,15.63l-9.81,0.04l-2.01-12.2
			l-3.92-23.96c-1.14-6.94-2.17-13.4-3.51-20.71c-0.76,3.57-2.29,6.71-2.4,10.33l-1.38,46.44c-2.07,0.23-4.12,0.31-6.22-0.02
			l0-132.07c2.84-0.43,5.58-0.2,8.72-0.13c0.12,3.8,0.03,7.39-0.03,11.24l-0.47,29.08c-0.07,4.53-0.54,8.76,0.13,12.99l4.97-21.96
			c0.7-3.11,1.2-5.99,1.89-9.09l4.92-22.21l9.3-0.09c-0.97,3.18-1.82,6.56-2.7,10.1l-2.78,11.2L310.03,61.55z"/>
		<path class="st0" d="M44.72,101.36c-4.96-1.74-8.66-3.82-13.32-5.74l-0.1,38.73c3.98-0.55,7.18-2.81,10.78-4.31l7.35-3.07
			l0.15,26.13l-24.59,0.19L24.98,16.96l23.8,0.32l0.14,26.41c-2.76-1.47-4.72-2.53-7.17-3.27c-3.41-1.58-6.39-3.55-10.39-4.67
			L31.29,76.9l13.57,0.3L44.72,101.36z"/>
		<path class="st0" d="M186.31,99.37l-7.68-3.44c-0.44-0.2-1.01-0.25-1.26-0.16c-0.31,0.12-0.57,0.68-0.56,1.24l0.08,36.45
			c2,0.1,3.25-0.81,4.64-1.59l13.43-5.68l-0.01,25.57l-24.14,0.24l0.06-88.42l0.01-45.16l23.49,0.03l-0.04,25.6l-7.19-3.13
			l-10.24-4.57l-0.03,40.79l13.64,0.23l0.09,24.32C189.1,100.63,187.99,100.13,186.31,99.37z"/>
		<path class="st0" d="M347.88,74.29l-3.85,29.25l-4.31,32.63c-0.58,4.36-0.45,8.53-1.56,12.82c-1.94,0.36-4.1,0.33-6.15-0.03
			l2.92-26.54c2.38-21.59,3.05-14.95-0.04-35.93l-3.64-24.78l-2.7-19.31l-3.7-25.67c3.39-0.05,5.99-0.27,9.04,0.13l5.37,47.68
			c0.39,3.44,0.16,6.57,1.12,10.01c0.8-2.19,0.89-4.49,1.14-6.97l1.98-20.07l3.09-30.75l8.84-0.05l-3.61,27.38L347.88,74.29z"/>
		<path class="st0" d="M583.17,67.16l-5.12,38.38l-1.36,12.29l-4.37,33.68c-2.25,0.37-4.1,0.26-6.44-0.03l3.43-30.05l1.87-16.48
			l-2.71-18.97l-4.06-28.41l-3.84-26.09l-1.54-12.17c3.17-0.21,5.94-0.17,8.79-0.02c0.86,3.54,0.71,6.82,1.12,10.38l3.97,34.84
			c0.45,3.98,0.6,7.59,1.37,11.55c1.14-1.26,1.07-2.81,1.22-4.48l1.74-19.17l3.41-33.15l8.77,0.03l-3.13,23.58L583.17,67.16z"/>
		<path class="st0" d="M238.45,149.07c-2.98,0.51-5.74,0.24-8.83,0.19l0.88-84.64l0.38-29.77l-9.63,7.45l0.08-25.84l25.49,0.03
			l0.08,25.76l-9.43-7.42l0.22,21.03L238.45,149.07z"/>
		<path class="st0" d="M507.84,133.57l18.22-5.55l0.02,23.54l-24.55,0.14l0-132.42c3.15-0.13,5.96-0.24,8.74,0.08l-0.36,15.26
			l-0.57,33.97L507.84,133.57z"/>
		<path class="st0" d="M152,132.68c4.61-1.95,8.92-3.14,13.91-4.69l-0.09,24.05l-24.28,0.21l0.01-134.12l8.77,0.16l-1.95,79.64
			l-0.7,35.48C149.11,133.72,150.36,133.01,152,132.68z"/>
		<path class="st0" d="M548.41,129.91l6.87-1.9l0.15,23.77l-24.64-0.24l0.02-132.22c2.97-0.25,5.75-0.13,8.58-0.07l-0.33,30.89
			l-2.01,83.45C541.06,132.75,544.55,130.98,548.41,129.91z"/>
		<path class="st0" d="M98.13,121.22l-0.66,31.17c-2.03,0.39-3.94,0.58-5.98,0.12L91.5,17.8c3.06-0.23,5.67-0.14,8.6,0L98.13,121.22
			z"/>
	</g>
</g>
</svg>
