<?xml version="1.0" encoding="UTF-8"?>
<svg id="_レイヤー_1" data-name="レイヤー_1" xmlns="http://www.w3.org/2000/svg" version="1.1" viewBox="0 0 1626.2 323.28">
  <!-- Generator: Adobe Illustrator 30.2.1, SVG Export Plug-In . SVG Version: 2.1.1 Build 1)  -->
  <defs>
    <style>
      .st0 {
        fill: #34aca1;
      }

      .st1 {
        fill: #0b3d49;
      }

      .st2 {
        fill: #91806f;
      }
    </style>
  </defs>
  <path class="st2" d="M678.71,291.23h-30.98c-43.26-10.75-61.61-52.39-61.75-94.61-.11-36.25,10.31-73.77,46.85-88.5,17.22-6.94,36.69-7.09,54.42-1.51,8.18,2.58,14.06,6.95,22.33,12.22l.31-78.15,62.39-.14-.08,241.55c.55,2.41,1.22,4.98-.17,5.65l-58.41-.17c-.01-6.53.97-11.95-.31-18.88-7.37,10.43-17.01,16.77-28.87,19.92-2.21.59-4.52,1.04-5.73,2.63ZM704.24,225.35c10.08-20.18,7.75-57.23-11.37-69.79-14.2-9.33-32.02-1.37-37.99,13.58-3.5,8.76-4.77,17-4.59,26.52.18,9.6.29,19.03,4.08,27.96,3.44,8.09,9.63,14.58,18.27,17.18,12.89,3.88,25.61-3.46,31.6-15.44Z"/>
  <path class="st2" d="M267.98,291.23h-27.98c-10.33,0-20.09-5.74-28.78-11.59-22.54-15.17-28.05-54.03-8.45-75.57,16.39-18.02,42.58-20.42,65.59-25.87,12.48-2.95,25.39-5.09,37.44-10.02,4.06-6.6-2.42-16.55-9.81-18.52-10.46-2.79-26.19-2.13-33.7,6.3-3.59,4.04-6.16,8.23-7.65,13.72l-58.66-8.21c7.56-41.04,35.9-54.87,73.89-56.61,34.8-1.6,86.24-1.41,96.68,40.05,2.69,10.66,3.07,21.11,3.58,32.21l.04,66.3c0,15.5,2.98,29.41,10.17,44.38l-62.13.38c-2.32-5.59-2.94-11.04-7.07-15.66-12.69,11.51-27.83,15.53-43.16,18.73ZM267.13,249.33c15.41,3.82,31.88-4.78,37.47-19.34,2.67-6.95,2-14.18,2.86-22.05-8.09,1.45-14.29,3.67-21.64,5.28l-11.33,2.49c-6.44,1.41-12.92,3.66-17.29,9.09-3.41,4.24-3.57,10.43-1.12,15.43,1.62,3.3,5.39,7.69,11.05,9.09Z"/>
  <path class="st2" d="M1605.11,286.47h0c0,.88-.72,1.6-1.6,1.6l-59.25.13c-.64,0-1.22-.38-1.47-.96l-5.45-12.43c-.4-.92-1.54-1.25-2.37-.68-5.81,4-15.37,9.84-20.15,11.39l-17.4,5.63c-.16.05-.33.08-.49.08h-28.05c-3.31,0-6.61-.39-9.8-1.25-.75-.2-1.58-.33-2.43-.56-12.86-3.4-25.04-9.85-32.34-20.77-6.07-9.08-9.04-18.49-9.14-29.27-.09-10.15,1.18-20.51,7.11-28.7,3.2-4.42,6-8.42,10.41-11.71,8.6-6.42,18.42-11.02,29.09-13.47l31.86-7.32c11.9-2.73,25.04-4.86,36.56-9.52.45-.18.82-.56.94-1.03,1.59-6.13-2.71-14.85-8.97-16.93-9.88-3.29-21.19-3.07-30.4,1.55-6.48,3.26-9.95,9.54-12.48,16.52-.26.71-.97,1.16-1.72,1.05l-56.17-7.58c-1-.13-1.63-1.15-1.3-2.1l3.99-11.78c11.3-33.42,41.27-42.54,74.15-43.32,26.8-.63,65.5-.72,83.5,22.03,8.81,11.14,12.1,27.65,12.15,41.72l.3,75.13c.06,14.01,2.47,26.92,8.58,39.59.66,1.36.66,3.16,2.38,2.97ZM1529.35,229.53c1.85-6.25,2.53-12.61,2.05-19.56-.07-.99-1.03-1.66-1.99-1.42l-32.71,8.13c-6.92,1.72-12.96,5.19-17.1,11.13-.09.14-.17.29-.23.45-2.62,7.69.81,16.04,8.59,19.83,16.86,8.21,37.44-5.28,41.37-18.56Z"/>
  <path class="st2" d="M1197.38,291.23h-38.97c-5.02-2.34-10.82-2.82-16.44-4.77-12.58-4.35-23.8-10.03-33.55-19.31-29.55-28.12-34.96-74.99-18.45-111.33,16.49-36.31,51.82-51.55,90.58-51.01s72.32,16.6,88.15,53.58c13.1,30.6,9.9,65.56-7.5,93.96-8.87,14.48-29.84,29.82-45.49,33.99l-18.31,4.89ZM1211.08,213.87c4.47-22.84-.61-58.49-30.35-60.41-14.11-.91-26.49,7.53-31.61,21.44-6.42,17.42-6.21,38.24,3.28,54.07,7.19,12.01,20.16,16.63,32.94,13.93,14.41-3.04,23.18-15.89,25.75-29.03Z"/>
  <path class="st2" d="M944.51,291.23h-62.07v-132.06s-24.28-.35-24.28-.35l.1-48.18,24.08-.04c.33-20.84-.62-41.66,14.9-56.94,14.66-14.42,42.72-14.71,62.25-12.06l30.48,4.14-7.47,42.9c-8.66-.84-31.65-6.55-35.84,4.47-2.14,5.64-2.93,11.11-1.2,17.28l31.58.08v48.07s-31.69.4-31.69.4c-.73,4.24-.87,7.15-.87,10.85l.03,121.43Z"/>
  <polygon class="st2" points="1062.86 291.23 1004.19 291.23 1004.15 44.44 1062.88 44.43 1062.86 291.23"/>
  <path class="st2" d="M1352.13,291.23h-62.28l-.03-178.62,58.73-.06c.67,4.68-.83,8.71,1.04,13.75,17.48-24.08,45.48-20.44,69.57-7.79l-19.65,50.56c-7.97-4.55-15.52-8.48-24.34-7.56-22.5,2.37-22.74,38.9-22.8,55.78l-.24,73.93Z"/>
  <path class="st2" d="M479.81,155.89c-11.35,3.66-17.86,13.27-19.9,24.19-1.1,5.89-.14,11.44-.14,17.59l.09,74.57c.04,5.39-.04,10.2-.77,15.77l-63.13.09V109.03s58.17-.09,58.17-.09l.88,20.53c16.86-18.48,40.19-27.01,64.82-24.23,13.14,1.49,26.37,5.23,35.48,15.2,11.28,12.34,16.63,28.66,16.68,45.7l.37,122.3-62.54-.45c-1.3-4.46-.81-8.9-.35-13.77l-.1-87.52c0-8.19-.64-16.57-5.01-23.45-4.99-7.85-15.42-10.32-24.56-7.37Z"/>
  <path class="st2" d="M127.71,230.63l48.66.47v57.1s-116.26-.26-116.26-.26V40.55s67.87-.1,67.87-.1c.77,2.34-.38,4.08-.27,6.87v183.31Z"/>
  <path class="st1" d="M1259.59,62.73c-17.99,25.86-53.7,29.29-77.08,8.06-3.01-2.74-8.59-7.35-4.98-12.97,8.49-13.24,27.3-19.66,42.3-20.52,13.32,2.54,26.92,5.23,34.53,15.85l5.14,7.18"/>
  <path class="st0" d="M1259.49,60.33c10.78-11.52,26.68-20.87,42.82-21.23,8.89-.2,17.34.12,25.39,3.83,9.06,4.18,17.66,8.8,24.02,16.76,4.4,5.5-16.2,15.8-18.63,17.23-24.37,14.4-54.72,5.66-73.5-14.19"/>
  <path class="st0" d="M1166.21,61.27c-2.9,14.56-21.58,23.95-34.85,24.54-13.56.61-27.16-5.92-34.97-16.14-4.23-5.53-4.55-10.99-.49-16.23,16.23-20.97,47.48-20.95,62.21-4.92,3.46,3.77,7.3,7.08,8.1,12.74Z"/>
</svg>